<svg width="1850" height="1130" viewBox="0 0 1850 1130" fill="none" xmlns="http://www.w3.org/2000/svg">
<path opacity="0.32" d="M994.592 41.0159C994.592 41.0159 999.393 39.4137 1000.66 38.3491C1001.93 37.2795 1004.34 32.8233 1004.34 32.8233C1004.34 32.8233 1005.94 37.6272 1007 38.894C1008.07 40.1633 1012.53 42.5668 1012.53 42.5668C1012.53 42.5668 1007.73 44.1692 1006.46 45.2363C1005.19 46.3034 1002.79 50.7591 1002.79 50.7591C1002.79 50.7591 1001.18 45.9575 1000.12 44.6882C999.05 43.4189 994.592 41.0159 994.592 41.0159Z" fill="url(#paint0_radial_30_97)"/>
<path d="M1472.73 965C1472.73 965 1473.67 973.387 1474.97 975.826C1476.27 978.268 1482.7 983.734 1482.7 983.734C1482.7 983.734 1474.31 984.674 1471.87 985.972C1469.43 987.269 1463.96 993.695 1463.96 993.695C1463.96 993.695 1463.02 985.308 1461.73 982.869C1460.43 980.429 1454 974.961 1454 974.961C1454 974.961 1462.39 974.021 1464.83 972.724C1467.27 971.426 1472.73 965 1472.73 965Z" fill="url(#paint1_radial_30_97)"/>
<path opacity="0.32" d="M1074.44 15.7391C1074.44 15.7391 1082.44 13.0703 1084.56 11.2905C1086.68 9.51079 1090.68 2.08211 1090.68 2.08211C1090.68 2.08211 1093.35 10.0845 1095.13 12.2015C1096.91 14.316 1104.33 18.3202 1104.33 18.3202C1104.33 18.3202 1096.33 20.992 1094.22 22.7712C1092.1 24.5505 1088.1 31.9772 1088.1 31.9772C1088.1 31.9772 1085.43 23.9747 1083.65 21.8577C1081.87 19.7408 1074.44 15.7391 1074.44 15.7391Z" fill="url(#paint2_radial_30_97)"/>
<path opacity="0.5" d="M1059.35 58.9653C1058.77 56.254 1056.1 54.5258 1053.39 55.1054C1050.68 55.685 1048.95 58.3528 1049.53 61.0641C1050.11 63.7754 1052.78 65.5036 1055.49 64.924C1058.2 64.3444 1059.93 61.6766 1059.35 58.9653Z" fill="url(#paint3_radial_30_97)"/>
<path opacity="0.5" d="M778.322 118.124C778.322 118.124 775.848 116.789 775.256 116.086C774.663 115.383 773.773 112.714 773.773 112.714C773.773 112.714 772.439 115.191 771.736 115.784C771.032 116.376 768.364 117.266 768.364 117.266C768.364 117.266 770.837 118.599 771.43 119.304C772.023 120.007 772.912 122.673 772.912 122.673C772.912 122.673 774.248 120.199 774.951 119.607C775.654 119.014 778.322 118.124 778.322 118.124Z" fill="url(#paint4_radial_30_97)"/>
<path opacity="0.5" d="M1408.81 781.254C1408.81 781.254 1410.63 779.114 1411.44 778.682C1412.25 778.249 1415.05 777.937 1415.05 777.937C1415.05 777.937 1412.9 776.116 1412.47 775.302C1412.04 774.491 1411.73 771.695 1411.73 771.695C1411.73 771.695 1409.91 773.835 1409.09 774.268C1408.28 774.701 1405.49 775.013 1405.49 775.013C1405.49 775.013 1407.63 776.833 1408.06 777.647C1408.49 778.461 1408.81 781.254 1408.81 781.254Z" fill="url(#paint5_radial_30_97)"/>
<path opacity="0.5" d="M947.998 63.2502C947.998 63.2502 945.524 61.9177 944.931 61.212C944.338 60.5088 943.449 57.8428 943.449 57.8428C943.449 57.8428 942.114 60.3167 941.411 60.9094C940.708 61.5022 938.039 62.392 938.039 62.392C938.039 62.392 940.513 63.727 941.106 64.4302C941.698 65.1334 942.588 67.8018 942.588 67.8018C942.588 67.8018 943.923 65.3254 944.626 64.7327C945.332 64.1394 947.998 63.2502 947.998 63.2502Z" fill="url(#paint6_radial_30_97)"/>
<path opacity="0.32" d="M1462.48 654.268C1462.48 654.268 1457.41 654.155 1455.86 654.731C1454.31 655.307 1450.54 658.692 1450.54 658.692C1450.54 658.692 1450.66 653.631 1450.08 652.077C1449.5 650.523 1446.12 646.757 1446.12 646.757C1446.12 646.757 1451.18 646.87 1452.73 646.294C1454.29 645.718 1458.05 642.336 1458.05 642.336C1458.05 642.336 1457.94 647.397 1458.52 648.951C1459.1 650.502 1462.48 654.268 1462.48 654.268Z" fill="url(#paint7_radial_30_97)"/>
<path opacity="0.32" d="M699.809 1025.78C699.809 1025.78 704.009 1022.95 705.626 1022.6C707.245 1022.24 712.244 1023.05 712.244 1023.05C712.244 1023.05 709.413 1018.86 709.06 1017.24C708.705 1015.62 709.518 1010.62 709.518 1010.62C709.518 1010.62 705.318 1013.45 703.699 1013.81C702.082 1014.16 697.084 1013.35 697.084 1013.35C697.084 1013.35 699.914 1017.55 700.269 1019.17C700.62 1020.79 699.809 1025.78 699.809 1025.78Z" fill="url(#paint8_radial_30_97)"/>
<path opacity="0.32" d="M1622.74 667.314C1622.74 667.314 1614.3 667.127 1611.71 668.087C1609.11 669.047 1602.84 674.686 1602.84 674.686C1602.84 674.686 1603.03 666.251 1602.07 663.658C1601.1 661.067 1595.46 654.79 1595.46 654.79C1595.46 654.79 1603.9 654.977 1606.5 654.017C1609.09 653.057 1615.36 647.417 1615.36 647.417C1615.36 647.417 1615.18 655.855 1616.14 658.446C1617.1 661.036 1622.74 667.314 1622.74 667.314Z" fill="url(#paint9_radial_30_97)"/>
<path opacity="0.32" d="M572.006 1123.35C572.006 1123.35 579.003 1118.64 581.704 1118.04C584.405 1117.45 592.732 1118.81 592.732 1118.81C592.732 1118.81 588.017 1111.81 587.423 1109.11C586.833 1106.41 588.187 1098.08 588.187 1098.08C588.187 1098.08 581.188 1102.8 578.487 1103.39C575.788 1103.98 567.459 1102.63 567.459 1102.63C567.459 1102.63 572.176 1109.63 572.768 1112.32C573.36 1115.02 572.006 1123.35 572.006 1123.35Z" fill="url(#paint10_radial_30_97)"/>
<path opacity="0.5" d="M1591.77 732.363C1591.77 732.363 1593.65 734.455 1593.97 735.318C1594.29 736.18 1594.23 738.991 1594.23 738.991C1594.23 738.991 1596.32 737.112 1597.18 736.792C1598.04 736.472 1600.85 736.534 1600.85 736.534C1600.85 736.534 1598.98 734.442 1598.66 733.579C1598.34 732.717 1598.4 729.903 1598.4 729.903C1598.4 729.903 1596.31 731.782 1595.45 732.102C1594.58 732.422 1591.77 732.363 1591.77 732.363Z" fill="url(#paint11_radial_30_97)"/>
<path d="M1536.71 674.346C1535.87 673.962 1535.5 672.969 1535.89 672.132C1536.27 671.294 1537.26 670.926 1538.1 671.312C1538.94 671.696 1539.31 672.69 1538.92 673.527C1538.53 674.364 1537.54 674.732 1536.71 674.346ZM1558.96 699.275C1559.73 697.598 1559 695.614 1557.32 694.844C1555.64 694.073 1553.66 694.808 1552.89 696.487C1552.12 698.164 1552.86 700.148 1554.53 700.916C1556.21 701.687 1558.19 700.952 1558.96 699.275ZM1519.74 688.613C1521.28 685.259 1519.81 681.291 1516.45 679.753C1513.1 678.212 1509.13 679.684 1507.59 683.037C1506.05 686.391 1507.52 690.359 1510.87 691.897C1514.23 693.436 1518.2 691.966 1519.74 688.613ZM1536.82 632.731C1537.59 631.054 1536.86 629.07 1535.18 628.299C1533.5 627.529 1531.52 628.263 1530.75 629.94C1529.98 631.617 1530.71 633.601 1532.39 634.372C1534.07 635.142 1536.05 634.407 1536.82 632.731Z" fill="url(#paint12_radial_30_97)"/>
<path d="M648.197 1082.78C648.696 1082.01 648.47 1080.97 647.692 1080.48C646.917 1079.98 645.882 1080.21 645.384 1080.99C644.887 1081.76 645.113 1082.8 645.891 1083.29C646.669 1083.79 647.701 1083.56 648.197 1082.78ZM642.94 1115.79C641.385 1114.79 640.931 1112.73 641.928 1111.17C642.925 1109.62 644.989 1109.16 646.543 1110.16C648.097 1111.16 648.551 1113.22 647.555 1114.77C646.561 1116.33 644.494 1116.78 642.94 1115.79ZM670.186 1085.62C667.077 1083.63 666.171 1079.5 668.162 1076.39C670.151 1073.28 674.283 1072.38 677.392 1074.37C680.501 1076.36 681.406 1080.49 679.418 1083.59C677.425 1086.7 673.292 1087.61 670.186 1085.62ZM625.614 1047.83C624.059 1046.84 623.605 1044.77 624.6 1043.21C625.595 1041.66 627.663 1041.2 629.215 1042.2C630.77 1043.2 631.224 1045.26 630.227 1046.82C629.23 1048.37 627.168 1048.82 625.614 1047.83Z" fill="url(#paint13_radial_30_97)"/>
<path opacity="0.5" d="M929.63 232.381C929.63 232.381 932.663 234.215 933.369 235.14C934.072 236.065 935.026 239.479 935.026 239.479C935.026 239.479 936.862 236.443 937.785 235.74C938.708 235.038 942.124 234.082 942.124 234.082C942.124 234.082 939.091 232.247 938.385 231.324C937.682 230.398 936.727 226.985 936.727 226.985C936.727 226.985 934.892 230.021 933.969 230.723C933.045 231.423 929.63 232.381 929.63 232.381Z" fill="url(#paint14_radial_30_97)"/>
<path d="M745.311 208.435C744.157 208.279 743.352 207.215 743.508 206.062C743.665 204.908 744.728 204.102 745.881 204.256C747.035 204.412 747.841 205.476 747.684 206.63C747.528 207.784 746.465 208.589 745.311 208.435ZM781.322 230.356C781.635 228.051 780.021 225.925 777.713 225.612C775.406 225.299 773.282 226.912 772.969 229.218C772.652 231.523 774.269 233.649 776.577 233.962C778.885 234.275 781.006 232.664 781.322 230.356ZM730.18 158.159C730.493 155.853 728.878 153.725 726.571 153.414C724.265 153.098 722.14 154.715 721.826 157.02C721.513 159.325 723.127 161.452 725.435 161.765C727.742 162.078 729.867 160.466 730.18 158.159Z" fill="url(#paint15_radial_30_97)"/>
<path opacity="0.5" d="M1231.49 89.1016C1231.49 89.1016 1231.51 85.5534 1231.94 84.4756C1232.37 83.3979 1234.81 80.8199 1234.81 80.8199C1234.81 80.8199 1231.26 80.8071 1230.18 80.377C1229.1 79.9444 1226.52 77.5073 1226.52 77.5073C1226.52 77.5073 1226.51 81.0529 1226.08 82.1332C1225.65 83.211 1223.21 85.7889 1223.21 85.7889C1223.21 85.7889 1226.76 85.8017 1227.84 86.2318C1228.91 86.6644 1231.49 89.1016 1231.49 89.1016Z" fill="url(#paint16_radial_30_97)"/>
<path d="M1552.9 307.499C1553.36 308.57 1552.86 309.806 1551.79 310.267C1550.72 310.725 1549.48 310.228 1549.02 309.158C1548.56 308.088 1549.06 306.849 1550.13 306.391C1551.2 305.933 1552.44 306.429 1552.9 307.499ZM1553.18 265.341C1551.04 266.255 1550.05 268.736 1550.97 270.876C1551.88 273.016 1554.36 274.007 1556.5 273.091C1558.64 272.174 1559.63 269.696 1558.72 267.556C1557.8 265.416 1555.32 264.425 1553.18 265.341ZM1580.85 308.521C1576.57 310.354 1574.59 315.31 1576.42 319.59C1578.25 323.868 1583.21 325.852 1587.49 324.019C1591.77 322.184 1593.75 317.23 1591.92 312.95C1590.08 308.669 1585.13 306.688 1580.85 308.521ZM1517.56 346.327C1515.42 347.244 1514.43 349.722 1515.34 351.862C1516.26 354.002 1518.74 354.995 1520.88 354.076C1523.02 353.157 1524.01 350.682 1523.09 348.541C1522.17 346.401 1519.7 345.413 1517.56 346.327Z" fill="url(#paint17_radial_30_97)"/>
<path d="M1852.36 707.442C1851.68 706.494 1851.9 705.179 1852.85 704.503C1853.8 703.824 1855.11 704.045 1855.79 704.989C1856.46 705.934 1856.25 707.252 1855.3 707.928C1854.36 708.606 1853.04 708.389 1852.36 707.442ZM1861.13 748.678C1863.03 747.324 1863.46 744.69 1862.11 742.798C1860.75 740.903 1858.12 740.468 1856.23 741.822C1854.34 743.177 1853.9 745.811 1855.25 747.703C1856.61 749.595 1859.24 750.032 1861.13 748.678ZM1824.85 712.444C1828.63 709.735 1829.5 704.47 1826.8 700.683C1824.09 696.897 1818.82 696.024 1815.03 698.733C1811.25 701.441 1810.37 706.707 1813.08 710.493C1815.79 714.279 1821.06 715.152 1824.85 712.444ZM1878.54 661.933C1880.44 660.578 1880.87 657.944 1879.52 656.052C1878.17 654.158 1875.53 653.723 1873.64 655.077C1871.75 656.431 1871.31 659.065 1872.66 660.957C1874.02 662.852 1876.65 663.287 1878.54 661.933Z" fill="url(#paint18_radial_30_97)"/>
<path d="M1361.14 628.525C1361.34 627.623 1362.23 627.047 1363.13 627.245C1364.03 627.439 1364.6 628.327 1364.41 629.229C1364.22 630.132 1363.33 630.706 1362.43 630.511C1361.53 630.317 1360.95 629.428 1361.14 628.525ZM1341.64 655.661C1343.44 656.047 1345.22 654.9 1345.61 653.095C1346 651.291 1344.85 649.514 1343.05 649.127C1341.24 648.741 1339.47 649.888 1339.07 651.69C1338.69 653.495 1339.84 655.271 1341.64 655.661ZM1401.79 619.608C1403.6 619.995 1405.37 618.848 1405.77 617.045C1406.15 615.241 1405.01 613.464 1403.2 613.075C1401.4 612.688 1399.62 613.835 1399.23 615.64C1398.84 617.445 1399.99 619.221 1401.79 619.608Z" fill="url(#paint19_radial_30_97)"/>
<path d="M771.165 949.365C770.514 948.712 769.456 948.707 768.804 949.36C768.149 950.012 768.148 951.068 768.797 951.723C769.449 952.378 770.506 952.38 771.159 951.73C771.812 951.079 771.817 950.02 771.165 949.365ZM802.24 961.659C800.93 962.96 798.818 962.954 797.513 961.647C796.212 960.337 796.217 958.222 797.527 956.922C798.837 955.621 800.949 955.628 802.253 956.932C803.553 958.242 803.548 960.357 802.24 961.659ZM732.142 963.827C730.832 965.128 728.72 965.121 727.417 963.817C726.116 962.507 726.121 960.392 727.429 959.09C728.739 957.789 730.852 957.796 732.157 959.103C733.457 960.412 733.452 962.527 732.142 963.827Z" fill="url(#paint20_radial_30_97)"/>
<path d="M165.108 548.151C165.108 548.151 172.45 552.311 175.187 552.692C177.924 553.071 186.123 551.077 186.123 551.077C186.123 551.077 181.963 558.419 181.582 561.158C181.201 563.897 183.195 572.092 183.195 572.092C183.195 572.092 175.853 567.932 173.116 567.553C170.379 567.171 162.18 569.166 162.18 569.166C162.18 569.166 166.34 561.826 166.721 559.087C167.103 556.348 165.108 548.151 165.108 548.151Z" fill="url(#paint21_radial_30_97)"/>
<path d="M188.151 343.35C188.151 343.35 195.493 347.51 198.23 347.892C200.967 348.271 209.166 346.276 209.166 346.276C209.166 346.276 205.006 353.618 204.625 356.358C204.243 359.097 206.238 367.291 206.238 367.291C206.238 367.291 198.896 363.131 196.159 362.752C193.422 362.371 185.223 364.365 185.223 364.365C185.223 364.365 189.383 357.026 189.764 354.287C190.146 351.547 188.151 343.35 188.151 343.35Z" fill="url(#paint22_radial_30_97)"/>
<path opacity="0.5" d="M7.00158 532.094C7.00158 532.094 6.336 529.363 6.464 528.449C6.58944 527.54 7.97693 525.09 7.97693 525.09C7.97693 525.09 5.24545 525.756 4.33409 525.628C3.42273 525.502 0.975349 524.115 0.975349 524.115C0.975349 524.115 1.64096 526.846 1.51296 527.76C1.38752 528.672 -5.91817e-08 531.119 -5.91817e-08 531.119C-5.91817e-08 531.119 2.73152 530.453 3.64288 530.581C4.5568 530.709 7.00158 532.094 7.00158 532.094Z" fill="url(#paint23_radial_30_97)"/>
<path opacity="0.5" d="M175.068 525.505C175.068 525.505 174.402 522.776 174.53 521.862C174.658 520.95 176.043 518.503 176.043 518.503C176.043 518.503 173.312 519.169 172.4 519.041C171.489 518.913 169.042 517.528 169.042 517.528C169.042 517.528 169.705 520.257 169.579 521.171C169.451 522.082 168.066 524.529 168.066 524.529C168.066 524.529 170.798 523.864 171.709 523.992C172.623 524.12 175.068 525.505 175.068 525.505Z" fill="url(#paint24_radial_30_97)"/>
<path opacity="0.5" d="M161.326 621.454C161.326 621.454 160.66 618.722 160.788 617.808C160.914 616.897 162.301 614.449 162.301 614.449C162.301 614.449 159.57 615.115 158.658 614.987C157.747 614.862 155.3 613.474 155.3 613.474C155.3 613.474 155.965 616.206 155.837 617.117C155.712 618.028 154.324 620.478 154.324 620.478C154.324 620.478 157.056 619.813 157.967 619.941C158.878 620.066 161.326 621.454 161.326 621.454Z" fill="url(#paint25_radial_30_97)"/>
<path d="M96.9145 521.408C96.2975 520.72 96.3538 519.665 97.0399 519.048C97.726 518.431 98.7833 518.487 99.4003 519.176C100.017 519.862 99.9609 520.92 99.2748 521.534C98.5862 522.151 97.5315 522.095 96.9145 521.408ZM107.441 553.124C108.813 551.893 108.926 549.778 107.695 548.404C106.461 547.032 104.349 546.919 102.977 548.153C101.604 549.384 101.489 551.499 102.723 552.871C103.954 554.243 106.066 554.356 107.441 553.124ZM75.6742 527.762C78.4185 525.295 78.6463 521.071 76.1785 518.324C73.7107 515.577 69.4867 515.351 66.7398 517.819C63.9955 520.287 63.7676 524.511 66.2355 527.258C68.7033 530.005 72.9273 530.228 75.6742 527.762ZM113.547 483.259C114.921 482.028 115.034 479.913 113.8 478.541C112.569 477.169 110.454 477.056 109.082 478.288C107.71 479.519 107.597 481.634 108.829 483.006C110.06 484.378 112.172 484.493 113.547 483.259Z" fill="url(#paint26_radial_30_97)"/>
<path d="M1015.71 117.772C1015.17 118.518 1014.13 118.684 1013.38 118.142C1012.64 117.597 1012.47 116.554 1013.01 115.807C1013.55 115.061 1014.6 114.895 1015.35 115.439C1016.09 115.982 1016.26 117.027 1015.71 117.772ZM1044.53 100.85C1043.04 99.7663 1040.95 100.095 1039.86 101.589C1038.78 103.08 1039.11 105.172 1040.6 106.255C1042.09 107.339 1044.18 107.008 1045.27 105.517C1046.35 104.026 1046.02 101.935 1044.53 100.85ZM1026.37 137.214C1023.38 135.047 1019.2 135.709 1017.03 138.694C1014.86 141.681 1015.52 145.86 1018.51 148.03C1021.5 150.2 1025.68 149.535 1027.85 146.551C1030.02 143.563 1029.35 139.382 1026.37 137.214ZM974.931 109.481C973.438 108.397 971.349 108.728 970.264 110.219C969.18 111.713 969.51 113.805 971.003 114.889C972.497 115.973 974.586 115.641 975.67 114.15C976.756 112.654 976.425 110.568 974.931 109.481Z" fill="url(#paint27_radial_30_97)"/>
<path d="M1794.39 126.976C1793.77 126.29 1793.83 125.232 1794.52 124.618C1795.2 124.001 1796.26 124.057 1796.88 124.744C1797.49 125.43 1797.44 126.487 1796.75 127.104C1796.06 127.718 1795.01 127.662 1794.39 126.976ZM1804.92 158.692C1806.29 157.46 1806.4 155.346 1805.17 153.971C1803.94 152.599 1801.82 152.486 1800.45 153.72C1799.08 154.952 1798.97 157.066 1800.2 158.438C1801.43 159.81 1803.54 159.923 1804.92 158.692ZM1773.15 133.33C1775.89 130.862 1776.12 126.638 1773.65 123.891C1771.19 121.147 1766.96 120.919 1764.22 123.387C1761.47 125.855 1761.25 130.079 1763.71 132.823C1766.18 135.57 1770.41 135.798 1773.15 133.33ZM1811.02 88.8267C1812.4 87.5928 1812.51 85.4808 1811.28 84.1086C1810.04 82.7365 1807.93 82.6213 1806.56 83.8552C1805.18 85.0891 1805.07 87.2011 1806.3 88.5733C1807.54 89.948 1809.65 90.0606 1811.02 88.8267Z" fill="url(#paint28_radial_30_97)"/>
<defs>
<radialGradient id="paint0_radial_30_97" cx="0" cy="0" r="1" gradientUnits="userSpaceOnUse" gradientTransform="translate(1003.56 41.7912) rotate(-102.066) scale(8.60746)">
<stop offset="0.0593" stop-color="#E47E99"/>
<stop offset="0.5259" stop-color="#E43D99"/>
<stop offset="0.9926" stop-color="#B30058"/>
</radialGradient>
<radialGradient id="paint1_radial_30_97" cx="0" cy="0" r="1" gradientUnits="userSpaceOnUse" gradientTransform="translate(1468.35 979.349) scale(14.348)">
<stop offset="0.0593" stop-color="#E47E99"/>
<stop offset="0.5259" stop-color="#E43D99"/>
<stop offset="0.9926" stop-color="#B30058"/>
</radialGradient>
<radialGradient id="paint2_radial_30_97" cx="0" cy="0" r="1" gradientUnits="userSpaceOnUse" gradientTransform="translate(1089.39 17.0313) rotate(-102.066) scale(14.3475)">
<stop offset="0.0593" stop-color="#E47E99"/>
<stop offset="0.5259" stop-color="#E43D99"/>
<stop offset="0.9926" stop-color="#B30058"/>
</radialGradient>
<radialGradient id="paint3_radial_30_97" cx="0" cy="0" r="1" gradientUnits="userSpaceOnUse" gradientTransform="translate(1130.68 204.803) rotate(-85.064) scale(392.55 392.546)">
<stop offset="0.0593" stop-color="#0A1656"/>
<stop offset="0.8889" stop-color="#4478AD"/>
</radialGradient>
<radialGradient id="paint4_radial_30_97" cx="0" cy="0" r="1" gradientUnits="userSpaceOnUse" gradientTransform="translate(1130.6 204.828) rotate(-85.0637) scale(392.529 392.529)">
<stop offset="0.0593" stop-color="#0A1656"/>
<stop offset="0.8889" stop-color="#4478AD"/>
</radialGradient>
<radialGradient id="paint5_radial_30_97" cx="0" cy="0" r="1" gradientUnits="userSpaceOnUse" gradientTransform="translate(1146.44 975.494) rotate(17.0016) scale(392.591 392.59)">
<stop offset="0.0593" stop-color="#0A1656"/>
<stop offset="0.8889" stop-color="#4478AD"/>
</radialGradient>
<radialGradient id="paint6_radial_30_97" cx="0" cy="0" r="1" gradientUnits="userSpaceOnUse" gradientTransform="translate(1130.63 204.836) rotate(-85.0641) scale(392.559 392.558)">
<stop offset="0.0593" stop-color="#0A1656"/>
<stop offset="0.8889" stop-color="#4478AD"/>
</radialGradient>
<radialGradient id="paint7_radial_30_97" cx="0" cy="0" r="1" gradientUnits="userSpaceOnUse" gradientTransform="translate(1454.3 650.513) scale(8.17946)">
<stop offset="0.0593" stop-color="#E47E99"/>
<stop offset="0.5259" stop-color="#E43D99"/>
<stop offset="0.9926" stop-color="#B30058"/>
</radialGradient>
<radialGradient id="paint8_radial_30_97" cx="0" cy="0" r="1" gradientUnits="userSpaceOnUse" gradientTransform="translate(704.663 1018.2) rotate(147.293) scale(8.17946)">
<stop offset="0.0593" stop-color="#E47E99"/>
<stop offset="0.5259" stop-color="#E43D99"/>
<stop offset="0.9926" stop-color="#B30058"/>
</radialGradient>
<radialGradient id="paint9_radial_30_97" cx="0" cy="0" r="1" gradientUnits="userSpaceOnUse" gradientTransform="translate(1609.1 661.053) scale(13.6343)">
<stop offset="0.0593" stop-color="#E47E99"/>
<stop offset="0.5259" stop-color="#E43D99"/>
<stop offset="0.9926" stop-color="#B30058"/>
</radialGradient>
<radialGradient id="paint10_radial_30_97" cx="0" cy="0" r="1" gradientUnits="userSpaceOnUse" gradientTransform="translate(580.097 1110.72) rotate(147.293) scale(13.6343)">
<stop offset="0.0593" stop-color="#E47E99"/>
<stop offset="0.5259" stop-color="#E43D99"/>
<stop offset="0.9926" stop-color="#B30058"/>
</radialGradient>
<radialGradient id="paint11_radial_30_97" cx="0" cy="0" r="1" gradientUnits="userSpaceOnUse" gradientTransform="translate(1295.08 737.618) rotate(114.671) scale(392.62 392.62)">
<stop offset="0.0593" stop-color="#0A1656"/>
<stop offset="0.8889" stop-color="#4478AD"/>
</radialGradient>
<radialGradient id="paint12_radial_30_97" cx="0" cy="0" r="1" gradientUnits="userSpaceOnUse" gradientTransform="translate(1536.92 663.54) rotate(-82.3342) scale(31.0639)">
<stop offset="0.0593" stop-color="#0A1656"/>
<stop offset="0.8889" stop-color="#4478AD"/>
</radialGradient>
<radialGradient id="paint13_radial_30_97" cx="0" cy="0" r="1" gradientUnits="userSpaceOnUse" gradientTransform="translate(642.178 1073.81) rotate(-130.373) scale(31.0639)">
<stop offset="0.0593" stop-color="#0A1656"/>
<stop offset="0.8889" stop-color="#4478AD"/>
</radialGradient>
<radialGradient id="paint14_radial_30_97" cx="0" cy="0" r="1" gradientUnits="userSpaceOnUse" gradientTransform="translate(573.526 347.622) rotate(97.7572) scale(495.222 495.223)">
<stop offset="0.0593" stop-color="#0A1656"/>
<stop offset="0.8889" stop-color="#4478AD"/>
</radialGradient>
<radialGradient id="paint15_radial_30_97" cx="0" cy="0" r="1" gradientUnits="userSpaceOnUse" gradientTransform="translate(751.57 193.689) rotate(-99.2456) scale(35.2949)">
<stop offset="0.0593" stop-color="#0A1656"/>
<stop offset="0.8889" stop-color="#4478AD"/>
</radialGradient>
<radialGradient id="paint16_radial_30_97" cx="0" cy="0" r="1" gradientUnits="userSpaceOnUse" gradientTransform="translate(1513.44 335.268) rotate(-23.1858) scale(495.23)">
<stop offset="0.0593" stop-color="#0A1656"/>
<stop offset="0.8889" stop-color="#4478AD"/>
</radialGradient>
<radialGradient id="paint17_radial_30_97" cx="0" cy="0" r="1" gradientUnits="userSpaceOnUse" gradientTransform="translate(1543.55 317.425) rotate(139.811) scale(39.1884)">
<stop offset="0.0593" stop-color="#0A1656"/>
<stop offset="0.8889" stop-color="#4478AD"/>
</radialGradient>
<radialGradient id="paint18_radial_30_97" cx="0" cy="0" r="1" gradientUnits="userSpaceOnUse" gradientTransform="translate(1859.36 695.738) rotate(-52.5824) scale(39.1892)">
<stop offset="0.0593" stop-color="#0A1656"/>
<stop offset="0.8889" stop-color="#4478AD"/>
</radialGradient>
<radialGradient id="paint19_radial_30_97" cx="0" cy="0" r="1" gradientUnits="userSpaceOnUse" gradientTransform="translate(1372.42 634.368) rotate(-180) scale(28.0486)">
<stop offset="0.0593" stop-color="#0A1656"/>
<stop offset="0.8889" stop-color="#4478AD"/>
</radialGradient>
<radialGradient id="paint20_radial_30_97" cx="0" cy="0" r="1" gradientUnits="userSpaceOnUse" gradientTransform="translate(764.835 960.375) rotate(-32.7068) scale(28.0486)">
<stop offset="0.0593" stop-color="#0A1656"/>
<stop offset="0.8889" stop-color="#4478AD"/>
</radialGradient>
<radialGradient id="paint21_radial_30_97" cx="0" cy="0" r="1" gradientUnits="userSpaceOnUse" gradientTransform="translate(174.151 560.123) rotate(-54.0686) scale(14.3476)">
<stop offset="0.0593" stop-color="#E47E99"/>
<stop offset="0.5259" stop-color="#E43D99"/>
<stop offset="0.9926" stop-color="#B30058"/>
</radialGradient>
<radialGradient id="paint22_radial_30_97" cx="0" cy="0" r="1" gradientUnits="userSpaceOnUse" gradientTransform="translate(197.195 355.323) rotate(-54.0686) scale(14.3471)">
<stop offset="0.0593" stop-color="#E47E99"/>
<stop offset="0.5259" stop-color="#E43D99"/>
<stop offset="0.9926" stop-color="#B30058"/>
</radialGradient>
<radialGradient id="paint23_radial_30_97" cx="0" cy="0" r="1" gradientUnits="userSpaceOnUse" gradientTransform="translate(178.446 852.03) rotate(-37.0709) scale(392.721 392.722)">
<stop offset="0.0593" stop-color="#0A1656"/>
<stop offset="0.8889" stop-color="#4478AD"/>
</radialGradient>
<radialGradient id="paint24_radial_30_97" cx="0" cy="0" r="1" gradientUnits="userSpaceOnUse" gradientTransform="translate(178.367 851.876) rotate(-37.07) scale(392.527 392.525)">
<stop offset="0.0593" stop-color="#0A1656"/>
<stop offset="0.8889" stop-color="#4478AD"/>
</radialGradient>
<radialGradient id="paint25_radial_30_97" cx="0" cy="0" r="1" gradientUnits="userSpaceOnUse" gradientTransform="translate(178.369 851.955) rotate(-37.0704) scale(392.624)">
<stop offset="0.0593" stop-color="#0A1656"/>
<stop offset="0.8889" stop-color="#4478AD"/>
</radialGradient>
<radialGradient id="paint26_radial_30_97" cx="0" cy="0" r="1" gradientUnits="userSpaceOnUse" gradientTransform="translate(103.522 512.736) rotate(-54.0687) scale(30.5626)">
<stop offset="0.0593" stop-color="#0A1656"/>
<stop offset="0.8889" stop-color="#4478AD"/>
</radialGradient>
<radialGradient id="paint27_radial_30_97" cx="0" cy="0" r="1" gradientUnits="userSpaceOnUse" gradientTransform="translate(1005.85 113.123) rotate(-156.134) scale(30.5615)">
<stop offset="0.0593" stop-color="#0A1656"/>
<stop offset="0.8889" stop-color="#4478AD"/>
</radialGradient>
<radialGradient id="paint28_radial_30_97" cx="0" cy="0" r="1" gradientUnits="userSpaceOnUse" gradientTransform="translate(1801 118.299) rotate(-54.0687) scale(30.5613)">
<stop offset="0.0593" stop-color="#0A1656"/>
<stop offset="0.8889" stop-color="#4478AD"/>
</radialGradient>
</defs>
</svg>
