<svg width="1850" height="816" viewBox="0 0 1850 816" fill="none" xmlns="http://www.w3.org/2000/svg">
<path opacity="0.32" d="M994.592 41.0164C994.592 41.0164 999.393 39.4141 1000.66 38.3495C1001.93 37.2799 1004.34 32.8237 1004.34 32.8237C1004.34 32.8237 1005.94 37.6277 1007 38.8944C1008.07 40.1637 1012.53 42.5672 1012.53 42.5672C1012.53 42.5672 1007.73 44.1696 1006.46 45.2367C1005.19 46.3038 1002.79 50.7595 1002.79 50.7595C1002.79 50.7595 1001.18 45.9579 1000.12 44.6886C999.05 43.4194 994.592 41.0164 994.592 41.0164Z" fill="url(#paint0_radial_30_70)"/>
<path d="M1384.62 786.479C1384.62 786.479 1385.56 794.866 1386.86 797.305C1388.16 799.747 1394.59 805.213 1394.59 805.213C1394.59 805.213 1386.2 806.153 1383.76 807.451C1381.32 808.748 1375.85 815.174 1375.85 815.174C1375.85 815.174 1374.91 806.787 1373.62 804.348C1372.32 801.908 1365.89 796.44 1365.89 796.44C1365.89 796.44 1374.28 795.5 1376.72 794.203C1379.16 792.905 1384.62 786.479 1384.62 786.479Z" fill="url(#paint1_radial_30_70)"/>
<path opacity="0.32" d="M1074.44 15.7391C1074.44 15.7391 1082.44 13.0704 1084.56 11.2906C1086.68 9.51084 1090.68 2.08217 1090.68 2.08217C1090.68 2.08217 1093.35 10.0846 1095.13 12.2016C1096.91 14.3161 1104.33 18.3202 1104.33 18.3202C1104.33 18.3202 1096.33 20.9921 1094.22 22.7713C1092.1 24.5505 1088.1 31.9772 1088.1 31.9772C1088.1 31.9772 1085.43 23.9748 1083.65 21.8578C1081.87 19.7408 1074.44 15.7391 1074.44 15.7391Z" fill="url(#paint2_radial_30_70)"/>
<path opacity="0.5" d="M1059.35 58.9652C1058.77 56.2539 1056.1 54.5257 1053.39 55.1053C1050.68 55.6848 1048.95 58.3526 1049.53 61.064C1050.11 63.7753 1052.78 65.5034 1055.49 64.9239C1058.2 64.3443 1059.93 61.6765 1059.35 58.9652Z" fill="url(#paint3_radial_30_70)"/>
<path opacity="0.5" d="M778.322 118.124C778.322 118.124 775.848 116.789 775.256 116.086C774.663 115.383 773.773 112.715 773.773 112.715C773.773 112.715 772.439 115.191 771.736 115.784C771.032 116.376 768.364 117.266 768.364 117.266C768.364 117.266 770.837 118.599 771.43 119.304C772.023 120.007 772.912 122.673 772.912 122.673C772.912 122.673 774.248 120.2 774.951 119.607C775.654 119.014 778.322 118.124 778.322 118.124Z" fill="url(#paint4_radial_30_70)"/>
<path opacity="0.5" d="M1408.81 781.254C1408.81 781.254 1410.63 779.114 1411.44 778.681C1412.25 778.249 1415.05 777.936 1415.05 777.936C1415.05 777.936 1412.9 776.116 1412.47 775.302C1412.04 774.491 1411.73 771.695 1411.73 771.695C1411.73 771.695 1409.91 773.835 1409.09 774.268C1408.28 774.701 1405.49 775.013 1405.49 775.013C1405.49 775.013 1407.63 776.833 1408.06 777.647C1408.49 778.461 1408.81 781.254 1408.81 781.254Z" fill="url(#paint5_radial_30_70)"/>
<path opacity="0.5" d="M947.998 63.2504C947.998 63.2504 945.524 61.9178 944.931 61.2121C944.338 60.509 943.449 57.8429 943.449 57.8429C943.449 57.8429 942.114 60.3168 941.411 60.9096C940.708 61.5023 938.039 62.3921 938.039 62.3921C938.039 62.3921 940.513 63.7272 941.106 64.4303C941.698 65.1335 942.588 67.802 942.588 67.802C942.588 67.802 943.923 65.3255 944.626 64.7328C945.332 64.1396 947.998 63.2504 947.998 63.2504Z" fill="url(#paint6_radial_30_70)"/>
<path opacity="0.32" d="M1462.48 654.268C1462.48 654.268 1457.41 654.155 1455.86 654.731C1454.31 655.307 1450.54 658.692 1450.54 658.692C1450.54 658.692 1450.66 653.63 1450.08 652.077C1449.5 650.523 1446.12 646.757 1446.12 646.757C1446.12 646.757 1451.18 646.869 1452.73 646.293C1454.29 645.717 1458.05 642.336 1458.05 642.336C1458.05 642.336 1457.94 647.397 1458.52 648.951C1459.1 650.502 1462.48 654.268 1462.48 654.268Z" fill="url(#paint7_radial_30_70)"/>
<path opacity="0.32" d="M1622.74 667.314C1622.74 667.314 1614.3 667.127 1611.71 668.087C1609.11 669.047 1602.84 674.686 1602.84 674.686C1602.84 674.686 1603.03 666.251 1602.07 663.658C1601.1 661.067 1595.46 654.79 1595.46 654.79C1595.46 654.79 1603.9 654.977 1606.5 654.017C1609.09 653.057 1615.36 647.417 1615.36 647.417C1615.36 647.417 1615.18 655.855 1616.14 658.446C1617.1 661.036 1622.74 667.314 1622.74 667.314Z" fill="url(#paint8_radial_30_70)"/>
<path opacity="0.5" d="M1591.77 732.363C1591.77 732.363 1593.65 734.455 1593.97 735.317C1594.29 736.18 1594.23 738.991 1594.23 738.991C1594.23 738.991 1596.32 737.112 1597.18 736.792C1598.04 736.472 1600.85 736.533 1600.85 736.533C1600.85 736.533 1598.98 734.442 1598.66 733.579C1598.34 732.717 1598.4 729.903 1598.4 729.903C1598.4 729.903 1596.31 731.782 1595.45 732.102C1594.58 732.422 1591.77 732.363 1591.77 732.363Z" fill="url(#paint9_radial_30_70)"/>
<path d="M1536.71 674.346C1535.87 673.962 1535.5 672.969 1535.89 672.132C1536.27 671.294 1537.26 670.926 1538.1 671.312C1538.94 671.696 1539.31 672.69 1538.92 673.527C1538.53 674.364 1537.54 674.732 1536.71 674.346ZM1558.96 699.275C1559.73 697.598 1559 695.614 1557.32 694.844C1555.64 694.073 1553.66 694.808 1552.89 696.487C1552.12 698.164 1552.86 700.148 1554.53 700.916C1556.21 701.687 1558.19 700.952 1558.96 699.275ZM1519.74 688.613C1521.28 685.259 1519.81 681.291 1516.45 679.753C1513.1 678.212 1509.13 679.684 1507.59 683.037C1506.05 686.391 1507.52 690.359 1510.87 691.897C1514.23 693.436 1518.2 691.966 1519.74 688.613ZM1536.82 632.731C1537.59 631.054 1536.86 629.07 1535.18 628.299C1533.5 627.529 1531.52 628.263 1530.75 629.94C1529.98 631.617 1530.71 633.601 1532.39 634.372C1534.07 635.142 1536.05 634.407 1536.82 632.731Z" fill="url(#paint10_radial_30_70)"/>
<path opacity="0.5" d="M929.63 232.382C929.63 232.382 932.663 234.215 933.369 235.14C934.072 236.066 935.026 239.48 935.026 239.48C935.026 239.48 936.862 236.443 937.785 235.741C938.708 235.038 942.124 234.083 942.124 234.083C942.124 234.083 939.091 232.247 938.385 231.324C937.682 230.399 936.728 226.985 936.728 226.985C936.728 226.985 934.892 230.021 933.969 230.724C933.045 231.424 929.63 232.382 929.63 232.382Z" fill="url(#paint11_radial_30_70)"/>
<path d="M745.311 208.435C744.157 208.279 743.352 207.216 743.508 206.062C743.665 204.908 744.728 204.102 745.881 204.256C747.035 204.412 747.841 205.476 747.684 206.63C747.528 207.784 746.465 208.589 745.311 208.435ZM781.322 230.356C781.635 228.051 780.021 225.925 777.713 225.612C775.406 225.299 773.282 226.912 772.969 229.218C772.652 231.523 774.269 233.649 776.577 233.962C778.885 234.275 781.006 232.664 781.322 230.356ZM730.18 158.159C730.493 155.854 728.878 153.725 726.571 153.414C724.265 153.098 722.14 154.715 721.826 157.02C721.513 159.326 723.127 161.452 725.435 161.765C727.742 162.078 729.867 160.467 730.18 158.159Z" fill="url(#paint12_radial_30_70)"/>
<path opacity="0.5" d="M1231.49 89.1017C1231.49 89.1017 1231.51 85.5536 1231.94 84.4758C1232.37 83.398 1234.81 80.8201 1234.81 80.8201C1234.81 80.8201 1231.26 80.8073 1230.18 80.3772C1229.1 79.9446 1226.52 77.5075 1226.52 77.5075C1226.52 77.5075 1226.51 81.0531 1226.08 82.1334C1225.65 83.2111 1223.21 85.7891 1223.21 85.7891C1223.21 85.7891 1226.76 85.8019 1227.84 86.232C1228.91 86.6646 1231.49 89.1017 1231.49 89.1017Z" fill="url(#paint13_radial_30_70)"/>
<path d="M1552.9 307.5C1553.36 308.57 1552.86 309.806 1551.79 310.267C1550.72 310.725 1549.48 310.229 1549.02 309.159C1548.56 308.089 1549.06 306.85 1550.13 306.391C1551.2 305.933 1552.44 306.43 1552.9 307.5ZM1553.18 265.342C1551.04 266.256 1550.05 268.736 1550.97 270.876C1551.88 273.016 1554.36 274.007 1556.5 273.091C1558.64 272.174 1559.63 269.696 1558.72 267.556C1557.8 265.416 1555.32 264.425 1553.18 265.342ZM1580.85 308.521C1576.57 310.354 1574.59 315.31 1576.42 319.591C1578.25 323.868 1583.21 325.852 1587.49 324.019C1591.77 322.184 1593.75 317.23 1591.92 312.95C1590.08 308.67 1585.13 306.688 1580.85 308.521ZM1517.56 346.327C1515.42 347.244 1514.43 349.722 1515.34 351.862C1516.26 354.002 1518.74 354.995 1520.88 354.076C1523.02 353.157 1524.01 350.682 1523.09 348.542C1522.17 346.402 1519.7 345.413 1517.56 346.327Z" fill="url(#paint14_radial_30_70)"/>
<path d="M1852.36 707.442C1851.68 706.494 1851.9 705.179 1852.85 704.503C1853.8 703.824 1855.11 704.044 1855.79 704.989C1856.46 705.934 1856.25 707.252 1855.3 707.928C1854.36 708.606 1853.04 708.389 1852.36 707.442ZM1861.13 748.678C1863.03 747.324 1863.46 744.69 1862.11 742.798C1860.75 740.903 1858.12 740.468 1856.23 741.822C1854.34 743.177 1853.9 745.811 1855.25 747.703C1856.61 749.595 1859.24 750.032 1861.13 748.678ZM1824.85 712.444C1828.63 709.735 1829.5 704.469 1826.8 700.683C1824.09 696.897 1818.82 696.024 1815.03 698.732C1811.25 701.441 1810.37 706.707 1813.08 710.493C1815.79 714.279 1821.06 715.152 1824.85 712.444ZM1878.54 661.932C1880.44 660.578 1880.87 657.944 1879.52 656.052C1878.17 654.158 1875.53 653.723 1873.64 655.077C1871.75 656.431 1871.31 659.065 1872.66 660.957C1874.02 662.851 1876.65 663.287 1878.54 661.932Z" fill="url(#paint15_radial_30_70)"/>
<path d="M1361.14 628.525C1361.34 627.623 1362.23 627.047 1363.13 627.245C1364.03 627.439 1364.6 628.327 1364.41 629.229C1364.22 630.132 1363.33 630.706 1362.43 630.511C1361.53 630.317 1360.95 629.428 1361.14 628.525ZM1341.64 655.661C1343.44 656.047 1345.22 654.9 1345.61 653.095C1346 651.291 1344.85 649.514 1343.05 649.127C1341.24 648.741 1339.47 649.888 1339.07 651.69C1338.69 653.495 1339.84 655.271 1341.64 655.661ZM1401.79 619.608C1403.6 619.995 1405.37 618.848 1405.77 617.046C1406.15 615.241 1405.01 613.464 1403.2 613.075C1401.4 612.688 1399.62 613.835 1399.23 615.64C1398.84 617.445 1399.99 619.222 1401.79 619.608Z" fill="url(#paint16_radial_30_70)"/>
<path d="M165.108 548.151C165.108 548.151 172.45 552.31 175.187 552.692C177.924 553.071 186.123 551.077 186.123 551.077C186.123 551.077 181.963 558.419 181.582 561.158C181.201 563.897 183.195 572.092 183.195 572.092C183.195 572.092 175.853 567.932 173.116 567.553C170.379 567.171 162.18 569.165 162.18 569.165C162.18 569.165 166.34 561.826 166.721 559.087C167.103 556.348 165.108 548.151 165.108 548.151Z" fill="url(#paint17_radial_30_70)"/>
<path d="M188.151 343.35C188.151 343.35 195.493 347.51 198.23 347.892C200.967 348.271 209.166 346.276 209.166 346.276C209.166 346.276 205.006 353.619 204.625 356.358C204.243 359.097 206.238 367.291 206.238 367.291C206.238 367.291 198.896 363.131 196.159 362.753C193.422 362.371 185.223 364.365 185.223 364.365C185.223 364.365 189.383 357.026 189.764 354.287C190.146 351.547 188.151 343.35 188.151 343.35Z" fill="url(#paint18_radial_30_70)"/>
<path opacity="0.5" d="M7.00158 532.094C7.00158 532.094 6.336 529.363 6.464 528.449C6.58944 527.54 7.97693 525.09 7.97693 525.09C7.97693 525.09 5.24545 525.756 4.33409 525.628C3.42273 525.502 0.975349 524.115 0.975349 524.115C0.975349 524.115 1.64096 526.846 1.51296 527.76C1.38752 528.671 -5.91817e-08 531.119 -5.91817e-08 531.119C-5.91817e-08 531.119 2.73152 530.453 3.64288 530.581C4.5568 530.709 7.00158 532.094 7.00158 532.094Z" fill="url(#paint19_radial_30_70)"/>
<path opacity="0.5" d="M175.068 525.505C175.068 525.505 174.402 522.776 174.53 521.862C174.658 520.95 176.043 518.503 176.043 518.503C176.043 518.503 173.312 519.169 172.4 519.041C171.489 518.913 169.042 517.528 169.042 517.528C169.042 517.528 169.705 520.257 169.579 521.171C169.451 522.082 168.066 524.529 168.066 524.529C168.066 524.529 170.798 523.864 171.709 523.992C172.623 524.12 175.068 525.505 175.068 525.505Z" fill="url(#paint20_radial_30_70)"/>
<path opacity="0.5" d="M161.326 621.453C161.326 621.453 160.66 618.722 160.788 617.808C160.914 616.897 162.301 614.449 162.301 614.449C162.301 614.449 159.57 615.115 158.658 614.987C157.747 614.861 155.3 613.474 155.3 613.474C155.3 613.474 155.965 616.205 155.837 617.117C155.712 618.028 154.324 620.478 154.324 620.478C154.324 620.478 157.056 619.813 157.967 619.941C158.878 620.066 161.326 621.453 161.326 621.453Z" fill="url(#paint21_radial_30_70)"/>
<path d="M96.9145 521.409C96.2975 520.72 96.3538 519.665 97.0399 519.048C97.726 518.431 98.7833 518.488 99.4003 519.176C100.017 519.862 99.9609 520.92 99.2748 521.534C98.5862 522.151 97.5315 522.095 96.9145 521.409ZM107.441 553.125C108.813 551.893 108.926 549.779 107.695 548.404C106.461 547.032 104.349 546.919 102.977 548.153C101.604 549.384 101.489 551.499 102.723 552.871C103.954 554.243 106.066 554.356 107.441 553.125ZM75.6742 527.763C78.4185 525.295 78.6463 521.071 76.1785 518.324C73.7107 515.577 69.4867 515.352 66.7398 517.819C63.9955 520.287 63.7676 524.511 66.2355 527.258C68.7033 530.005 72.9273 530.228 75.6742 527.763ZM113.547 483.259C114.921 482.028 115.034 479.914 113.8 478.541C112.569 477.169 110.454 477.057 109.082 478.288C107.71 479.519 107.597 481.634 108.829 483.006C110.06 484.378 112.172 484.493 113.547 483.259Z" fill="url(#paint22_radial_30_70)"/>
<path d="M1015.71 117.772C1015.17 118.519 1014.13 118.685 1013.38 118.142C1012.64 117.598 1012.47 116.554 1013.01 115.808C1013.55 115.061 1014.6 114.895 1015.35 115.439C1016.09 115.982 1016.26 117.028 1015.71 117.772ZM1044.53 100.851C1043.04 99.7667 1040.95 100.095 1039.86 101.589C1038.78 103.08 1039.11 105.172 1040.6 106.256C1042.09 107.34 1044.18 107.008 1045.27 105.517C1046.35 104.026 1046.02 101.935 1044.53 100.851ZM1026.37 137.215C1023.38 135.047 1019.2 135.71 1017.03 138.695C1014.86 141.682 1015.52 145.86 1018.51 148.03C1021.5 150.201 1025.68 149.535 1027.85 146.551C1030.02 143.563 1029.35 139.383 1026.37 137.215ZM974.931 109.481C973.438 108.398 971.349 108.729 970.264 110.22C969.18 111.713 969.51 113.805 971.003 114.889C972.497 115.973 974.586 115.642 975.67 114.151C976.756 112.654 976.425 110.568 974.931 109.481Z" fill="url(#paint23_radial_30_70)"/>
<path d="M1794.39 126.976C1793.77 126.29 1793.83 125.233 1794.52 124.619C1795.2 124.002 1796.26 124.058 1796.88 124.744C1797.49 125.43 1797.44 126.487 1796.75 127.104C1796.06 127.719 1795.01 127.663 1794.39 126.976ZM1804.92 158.692C1806.29 157.461 1806.4 155.346 1805.17 153.972C1803.94 152.6 1801.82 152.487 1800.45 153.721C1799.08 154.952 1798.97 157.067 1800.2 158.439C1801.43 159.811 1803.54 159.924 1804.92 158.692ZM1773.15 133.33C1775.89 130.862 1776.12 126.639 1773.65 123.892C1771.19 121.147 1766.96 120.919 1764.22 123.387C1761.47 125.855 1761.25 130.079 1763.71 132.823C1766.18 135.57 1770.41 135.798 1773.15 133.33ZM1811.02 88.8273C1812.4 87.5934 1812.51 85.4814 1811.28 84.1092C1810.04 82.7371 1807.93 82.6219 1806.56 83.8558C1805.18 85.0897 1805.07 87.2017 1806.3 88.5738C1807.54 89.9486 1809.65 90.0612 1811.02 88.8273Z" fill="url(#paint24_radial_30_70)"/>
<defs>
<radialGradient id="paint0_radial_30_70" cx="0" cy="0" r="1" gradientUnits="userSpaceOnUse" gradientTransform="translate(1003.56 41.7916) rotate(-102.066) scale(8.60746)">
<stop offset="0.0593" stop-color="#E47E99"/>
<stop offset="0.5259" stop-color="#E43D99"/>
<stop offset="0.9926" stop-color="#B30058"/>
</radialGradient>
<radialGradient id="paint1_radial_30_70" cx="0" cy="0" r="1" gradientUnits="userSpaceOnUse" gradientTransform="translate(1380.24 800.828) scale(14.348)">
<stop offset="0.0593" stop-color="#E47E99"/>
<stop offset="0.5259" stop-color="#E43D99"/>
<stop offset="0.9926" stop-color="#B30058"/>
</radialGradient>
<radialGradient id="paint2_radial_30_70" cx="0" cy="0" r="1" gradientUnits="userSpaceOnUse" gradientTransform="translate(1089.39 17.0313) rotate(-102.066) scale(14.3475)">
<stop offset="0.0593" stop-color="#E47E99"/>
<stop offset="0.5259" stop-color="#E43D99"/>
<stop offset="0.9926" stop-color="#B30058"/>
</radialGradient>
<radialGradient id="paint3_radial_30_70" cx="0" cy="0" r="1" gradientUnits="userSpaceOnUse" gradientTransform="translate(1130.68 204.803) rotate(-85.0642) scale(392.55 392.547)">
<stop offset="0.0593" stop-color="#0A1656"/>
<stop offset="0.8889" stop-color="#4478AD"/>
</radialGradient>
<radialGradient id="paint4_radial_30_70" cx="0" cy="0" r="1" gradientUnits="userSpaceOnUse" gradientTransform="translate(1130.6 204.829) rotate(-85.0639) scale(392.528 392.53)">
<stop offset="0.0593" stop-color="#0A1656"/>
<stop offset="0.8889" stop-color="#4478AD"/>
</radialGradient>
<radialGradient id="paint5_radial_30_70" cx="0" cy="0" r="1" gradientUnits="userSpaceOnUse" gradientTransform="translate(1146.44 975.494) rotate(17.0016) scale(392.591 392.59)">
<stop offset="0.0593" stop-color="#0A1656"/>
<stop offset="0.8889" stop-color="#4478AD"/>
</radialGradient>
<radialGradient id="paint6_radial_30_70" cx="0" cy="0" r="1" gradientUnits="userSpaceOnUse" gradientTransform="translate(1130.63 204.836) rotate(-85.0641) scale(392.559 392.558)">
<stop offset="0.0593" stop-color="#0A1656"/>
<stop offset="0.8889" stop-color="#4478AD"/>
</radialGradient>
<radialGradient id="paint7_radial_30_70" cx="0" cy="0" r="1" gradientUnits="userSpaceOnUse" gradientTransform="translate(1454.3 650.513) scale(8.17946)">
<stop offset="0.0593" stop-color="#E47E99"/>
<stop offset="0.5259" stop-color="#E43D99"/>
<stop offset="0.9926" stop-color="#B30058"/>
</radialGradient>
<radialGradient id="paint8_radial_30_70" cx="0" cy="0" r="1" gradientUnits="userSpaceOnUse" gradientTransform="translate(1609.1 661.053) scale(13.6343)">
<stop offset="0.0593" stop-color="#E47E99"/>
<stop offset="0.5259" stop-color="#E43D99"/>
<stop offset="0.9926" stop-color="#B30058"/>
</radialGradient>
<radialGradient id="paint9_radial_30_70" cx="0" cy="0" r="1" gradientUnits="userSpaceOnUse" gradientTransform="translate(1295.08 737.617) rotate(114.671) scale(392.62 392.62)">
<stop offset="0.0593" stop-color="#0A1656"/>
<stop offset="0.8889" stop-color="#4478AD"/>
</radialGradient>
<radialGradient id="paint10_radial_30_70" cx="0" cy="0" r="1" gradientUnits="userSpaceOnUse" gradientTransform="translate(1536.92 663.54) rotate(-82.3342) scale(31.0639)">
<stop offset="0.0593" stop-color="#0A1656"/>
<stop offset="0.8889" stop-color="#4478AD"/>
</radialGradient>
<radialGradient id="paint11_radial_30_70" cx="0" cy="0" r="1" gradientUnits="userSpaceOnUse" gradientTransform="translate(573.526 347.623) rotate(97.7573) scale(495.222 495.222)">
<stop offset="0.0593" stop-color="#0A1656"/>
<stop offset="0.8889" stop-color="#4478AD"/>
</radialGradient>
<radialGradient id="paint12_radial_30_70" cx="0" cy="0" r="1" gradientUnits="userSpaceOnUse" gradientTransform="translate(751.57 193.689) rotate(-99.2456) scale(35.2949)">
<stop offset="0.0593" stop-color="#0A1656"/>
<stop offset="0.8889" stop-color="#4478AD"/>
</radialGradient>
<radialGradient id="paint13_radial_30_70" cx="0" cy="0" r="1" gradientUnits="userSpaceOnUse" gradientTransform="translate(1513.44 335.269) rotate(-23.1858) scale(495.23)">
<stop offset="0.0593" stop-color="#0A1656"/>
<stop offset="0.8889" stop-color="#4478AD"/>
</radialGradient>
<radialGradient id="paint14_radial_30_70" cx="0" cy="0" r="1" gradientUnits="userSpaceOnUse" gradientTransform="translate(1543.55 317.426) rotate(139.811) scale(39.1884)">
<stop offset="0.0593" stop-color="#0A1656"/>
<stop offset="0.8889" stop-color="#4478AD"/>
</radialGradient>
<radialGradient id="paint15_radial_30_70" cx="0" cy="0" r="1" gradientUnits="userSpaceOnUse" gradientTransform="translate(1859.36 695.737) rotate(-52.5824) scale(39.1892)">
<stop offset="0.0593" stop-color="#0A1656"/>
<stop offset="0.8889" stop-color="#4478AD"/>
</radialGradient>
<radialGradient id="paint16_radial_30_70" cx="0" cy="0" r="1" gradientUnits="userSpaceOnUse" gradientTransform="translate(1372.42 634.368) rotate(-180) scale(28.0486)">
<stop offset="0.0593" stop-color="#0A1656"/>
<stop offset="0.8889" stop-color="#4478AD"/>
</radialGradient>
<radialGradient id="paint17_radial_30_70" cx="0" cy="0" r="1" gradientUnits="userSpaceOnUse" gradientTransform="translate(174.151 560.122) rotate(-54.0686) scale(14.3476)">
<stop offset="0.0593" stop-color="#E47E99"/>
<stop offset="0.5259" stop-color="#E43D99"/>
<stop offset="0.9926" stop-color="#B30058"/>
</radialGradient>
<radialGradient id="paint18_radial_30_70" cx="0" cy="0" r="1" gradientUnits="userSpaceOnUse" gradientTransform="translate(197.195 355.323) rotate(-54.0686) scale(14.3471)">
<stop offset="0.0593" stop-color="#E47E99"/>
<stop offset="0.5259" stop-color="#E43D99"/>
<stop offset="0.9926" stop-color="#B30058"/>
</radialGradient>
<radialGradient id="paint19_radial_30_70" cx="0" cy="0" r="1" gradientUnits="userSpaceOnUse" gradientTransform="translate(178.446 852.03) rotate(-37.0709) scale(392.721 392.722)">
<stop offset="0.0593" stop-color="#0A1656"/>
<stop offset="0.8889" stop-color="#4478AD"/>
</radialGradient>
<radialGradient id="paint20_radial_30_70" cx="0" cy="0" r="1" gradientUnits="userSpaceOnUse" gradientTransform="translate(178.367 851.876) rotate(-37.07) scale(392.527 392.525)">
<stop offset="0.0593" stop-color="#0A1656"/>
<stop offset="0.8889" stop-color="#4478AD"/>
</radialGradient>
<radialGradient id="paint21_radial_30_70" cx="0" cy="0" r="1" gradientUnits="userSpaceOnUse" gradientTransform="translate(178.369 851.955) rotate(-37.0704) scale(392.624)">
<stop offset="0.0593" stop-color="#0A1656"/>
<stop offset="0.8889" stop-color="#4478AD"/>
</radialGradient>
<radialGradient id="paint22_radial_30_70" cx="0" cy="0" r="1" gradientUnits="userSpaceOnUse" gradientTransform="translate(103.522 512.736) rotate(-54.0687) scale(30.5626)">
<stop offset="0.0593" stop-color="#0A1656"/>
<stop offset="0.8889" stop-color="#4478AD"/>
</radialGradient>
<radialGradient id="paint23_radial_30_70" cx="0" cy="0" r="1" gradientUnits="userSpaceOnUse" gradientTransform="translate(1005.85 113.124) rotate(-156.134) scale(30.5615)">
<stop offset="0.0593" stop-color="#0A1656"/>
<stop offset="0.8889" stop-color="#4478AD"/>
</radialGradient>
<radialGradient id="paint24_radial_30_70" cx="0" cy="0" r="1" gradientUnits="userSpaceOnUse" gradientTransform="translate(1801 118.3) rotate(-54.0687) scale(30.5613)">
<stop offset="0.0593" stop-color="#0A1656"/>
<stop offset="0.8889" stop-color="#4478AD"/>
</radialGradient>
</defs>
</svg>
