<svg width="16" height="16" viewBox="0 0 16 16" fill="none" xmlns="http://www.w3.org/2000/svg">
<path d="M6.43653 6.30128V5.67777C6.2201 5.64351 6.00149 5.62473 5.78239 5.62159C3.66111 5.61706 1.78309 6.99172 1.14607 9.01507C0.50905 11.0384 1.26098 13.241 3.00215 14.4525C2.36366 13.7692 1.93659 12.9156 1.77251 11.9949C1.60842 11.0742 1.71432 10.1257 2.07743 9.26386C2.44054 8.40202 3.04534 7.6637 3.81882 7.13801C4.5923 6.61232 5.5014 6.32175 6.43639 6.30135L6.43653 6.30128Z" fill="white"/>
<path d="M6.55435 13.3639C7.74037 13.3623 8.71525 12.4279 8.76718 11.2431V0.669497H10.6988C10.6594 0.448553 10.6406 0.224424 10.6427 0L8.00054 0V10.5634C7.9566 11.7543 6.97938 12.6976 5.7877 12.6995C5.43158 12.6965 5.08127 12.6089 4.76562 12.444C4.9702 12.7274 5.23887 12.9585 5.54972 13.1184C5.86057 13.2782 6.2048 13.3624 6.55435 13.3639ZM14.3068 4.25699V3.66929C13.5959 3.66957 12.9008 3.45979 12.3087 3.0663C12.8277 3.66971 13.5291 4.08768 14.3068 4.25699Z" fill="white"/>
<path d="M12.3069 3.06603C11.7236 2.40185 11.4021 1.54802 11.4024 0.664062H10.6971C10.7882 1.15279 10.9779 1.61783 11.2547 2.0308C11.5315 2.44378 11.8895 2.79602 12.3069 3.06603ZM5.78087 8.26338C5.28621 8.26589 4.80659 8.4337 4.41826 8.74012C4.02993 9.04654 3.75518 9.47398 3.63769 9.95449C3.5202 10.435 3.56671 10.941 3.76984 11.392C3.97296 11.8431 4.32104 12.2133 4.75872 12.4437C4.51942 12.1133 4.37611 11.7232 4.34464 11.3164C4.31316 10.9097 4.39474 10.5021 4.58037 10.1389C4.76599 9.77556 5.04843 9.47065 5.39648 9.25781C5.74453 9.04497 6.14464 8.9325 6.55261 8.9328C6.7744 8.93571 6.99464 8.97023 7.20668 9.03533V6.34694C6.99014 6.31447 6.77157 6.2974 6.55261 6.29585H6.43501V8.34C6.22184 8.28283 6.00148 8.25701 5.78087 8.26338Z" fill="white"/>
<path d="M14.3084 4.25732V6.30155C12.9923 6.29899 11.7104 5.8824 10.6442 5.11079V10.4819C10.6385 13.162 8.46425 15.3318 5.78414 15.3318C4.78876 15.3336 3.81735 15.0264 3.00391 14.4528C3.66722 15.1662 4.53001 15.6634 5.47989 15.8795C6.42978 16.0956 7.42273 16.0206 8.32941 15.6644C9.2361 15.3081 10.0145 14.6871 10.5632 13.8822C11.1119 13.0772 11.4055 12.1257 11.4057 11.1515V5.79564C12.4754 6.56217 13.7589 6.97332 15.075 6.97105V4.33891C14.8173 4.33814 14.5604 4.3108 14.3084 4.25732Z" fill="white"/>
<path d="M10.6417 10.4813V5.11019C11.7111 5.8774 12.9948 6.28863 14.3109 6.28559V4.24144C13.5334 4.07723 12.8303 3.6647 12.3077 3.06603C11.8903 2.79602 11.5322 2.44378 11.2554 2.0308C10.9787 1.61783 10.7889 1.15279 10.6978 0.664062H8.76619V11.2429C8.74738 11.7034 8.5856 12.1466 8.30332 12.5109C8.02104 12.8752 7.6323 13.1425 7.1911 13.2757C6.7499 13.4089 6.27817 13.4013 5.84147 13.2541C5.40476 13.1068 5.02477 12.8272 4.7543 12.4541C4.31654 12.2236 3.96839 11.8534 3.76521 11.4024C3.56204 10.9513 3.5155 10.4453 3.63299 9.96469C3.75049 9.48414 4.02528 9.05666 4.41367 8.75023C4.80205 8.4438 5.28174 8.27602 5.77645 8.27356C5.99831 8.27555 6.2187 8.30999 6.43059 8.37581V6.33158C5.49057 6.34752 4.5755 6.63662 3.79695 7.16364C3.0184 7.69065 2.41001 8.4328 2.04595 9.2996C1.68189 10.1664 1.5779 11.1204 1.74666 12.0453C1.91542 12.9702 2.34963 13.826 2.99635 14.5083C3.81779 15.0631 4.79058 15.3505 5.78161 15.3312C8.46172 15.3312 10.636 13.1614 10.6417 10.4813Z" fill="white"/>
</svg>
