<svg width="20" height="20" viewBox="0 0 20 20" fill="none" xmlns="http://www.w3.org/2000/svg">
<path d="M18.3346 4.83351C17.7083 5.10525 17.0458 5.28489 16.368 5.36684C17.0831 4.93961 17.619 4.26749 17.8763 3.47517C17.2043 3.87523 16.4686 4.15709 15.7013 4.30851C15.1884 3.75232 14.5054 3.38209 13.7595 3.25588C13.0135 3.12968 12.2468 3.25464 11.5795 3.61117C10.9122 3.96769 10.3821 4.53562 10.0723 5.22587C9.76259 5.91613 9.69071 6.68967 9.86797 7.42517C8.50916 7.35645 7.18 7.00264 5.96685 6.38673C4.75369 5.77082 3.68367 4.90659 2.8263 3.85017C2.52558 4.37531 2.36757 4.97003 2.36797 5.57517C2.3669 6.13716 2.50482 6.69069 2.76943 7.18648C3.03405 7.68227 3.41715 8.10493 3.88464 8.41684C3.34128 8.40206 2.80954 8.25626 2.33464 7.99184V8.03351C2.33871 8.82092 2.61463 9.58275 3.11573 10.1901C3.61683 10.7975 4.31235 11.2132 5.08464 11.3668C4.78735 11.4573 4.4787 11.505 4.16797 11.5085C3.95288 11.506 3.73832 11.4865 3.5263 11.4502C3.74623 12.1275 4.17182 12.7195 4.74386 13.1436C5.31591 13.5678 6.00595 13.8031 6.71797 13.8168C5.51564 14.7629 4.03121 15.2792 2.5013 15.2835C2.22275 15.2844 1.94442 15.2677 1.66797 15.2335C3.22999 16.2421 5.05031 16.7774 6.90964 16.7752C8.19271 16.7885 9.46558 16.546 10.6539 16.0619C11.8422 15.5778 12.9222 14.8617 13.8306 13.9556C14.7391 13.0494 15.4579 11.9713 15.9451 10.7843C16.4323 9.59719 16.678 8.32495 16.668 7.04184C16.668 6.90017 16.668 6.75017 16.668 6.60017C17.3219 6.11252 17.8859 5.5147 18.3346 4.83351Z" fill="white"/>
</svg>
